<?xml version="1.0" encoding="utf-8"?>
<svg x="0px" y="0px" width="14px" height="14px" viewBox="0 0 14 14" xmlns="http://www.w3.org/2000/svg" xmlns:xlink="http://www.w3.org/1999/xlink">
  <!--Generated by AMDN-->
  <g id="Layer_1">
    <path id="Path_0" style="fill:#000000;fill-opacity:1;fill-rule:nonzero;opacity:1;stroke:none;" d="M9.89552,7.85779 C9.89552,7.85779,7.49529,5.45756,7.49529,5.45756 C7.30479,5.60996,7.08572,5.73061,6.83808,5.8195 C6.59044,5.9084,6.32692,5.95285,6.04753,5.95285 C5.3554,5.95285,4.76963,5.71314,4.29022,5.23373 C3.81081,4.75432,3.57111,4.16855,3.57111,3.47642 C3.57111,2.78429,3.81081,2.19853,4.29022,1.71911 C4.76963,1.2397,5.3554,1,6.04753,1 C6.73966,1,7.32543,1.2397,7.80483,1.71911 C8.28425,2.19853,8.52395,2.78429,8.52395,3.47642 C8.52395,3.75582,8.4795,4.01933,8.39061,4.26697 C8.30171,4.51462,8.18106,4.73369,8.02867,4.92418 C8.82872,5.72425,9.62884,6.5243,10.4289,7.32441 C10.2511,7.50223,10.0733,7.67998,9.89552,7.85779 C9.89552,7.85779,9.89552,7.85779,9.89552,7.85779 z M6.04753,5.19087 C6.52376,5.19087,6.92856,5.02419,7.26193,4.69082 C7.59529,4.35746,7.76198,3.95266,7.76198,3.47642 C7.76198,3.00019,7.59529,2.59539,7.26193,2.26203 C6.92856,1.92866,6.52376,1.76198,6.04753,1.76198 C5.57129,1.76198,5.1665,1.92866,4.83313,2.26203 C4.49977,2.59539,4.33308,3.00019,4.33308,3.47642 C4.33308,3.95266,4.49977,4.35746,4.83313,4.69082 C5.1665,5.02419,5.57129,5.19087,6.04753,5.19087 C6.04753,5.19087,6.04753,5.19087,6.04753,5.19087 z"/>
    <g id="quotes_Copy_2">
      <g id="quotes_Copy_2-1">
        <path style="fill:#000000;fill-opacity:1;fill-rule:nonzero;opacity:1;stroke:none;" d="M0.8315,13 C0.8315,13,0.8315,9.62,0.8315,9.62 C0.8315,9.62,1.2995,9.62,1.2995,9.62 C1.2995,9.62,1.2995,9.9255,1.2995,9.9255 C1.32117,9.8735,1.34717,9.82583,1.3775,9.7825 C1.40783,9.73917,1.44358,9.70017,1.48475,9.6655 C1.52592,9.63083,1.5725,9.60592,1.6245,9.59075 C1.6765,9.57558,1.7285,9.568,1.7805,9.568 C1.84983,9.568,1.91483,9.581,1.9755,9.607 C2.03617,9.633,2.08925,9.66983,2.13475,9.7175 C2.18025,9.76517,2.21708,9.81933,2.24525,9.88 C2.27342,9.94067,2.29617,10.0013,2.3135,10.062 C2.33083,10.0013,2.35358,9.94067,2.38175,9.88 C2.40992,9.81933,2.44675,9.76517,2.49225,9.7175 C2.53775,9.66983,2.59083,9.633,2.6515,9.607 C2.71217,9.581,2.775,9.568,2.84,9.568 C2.90933,9.568,2.9765,9.58208,3.0415,9.61025 C3.1065,9.63842,3.16175,9.67742,3.20725,9.72725 C3.25275,9.77708,3.2885,9.83342,3.3145,9.89625 C3.3405,9.95908,3.36217,10.0241,3.3795,10.0913 C3.39683,10.1584,3.40767,10.2256,3.412,10.2928 C3.41633,10.3599,3.4185,10.4282,3.4185,10.4975 C3.4185,10.4975,3.4185,13,3.4185,13 C3.4185,13,2.9505,13,2.9505,13 C2.9505,13,2.9505,10.4975,2.9505,10.4975 C2.9505,10.4412,2.94725,10.3859,2.94075,10.3318 C2.93425,10.2776,2.92017,10.2256,2.8985,10.1758 C2.87683,10.1259,2.84433,10.0826,2.801,10.0458 C2.75767,10.0089,2.71,9.9905,2.658,9.9905 C2.60167,9.9905,2.55183,10.0089,2.5085,10.0458 C2.46517,10.0826,2.43267,10.1259,2.411,10.1758 C2.38933,10.2256,2.37525,10.2776,2.36875,10.3318 C2.36225,10.3859,2.359,10.4412,2.359,10.4975 C2.359,10.4975,2.359,13,2.359,13 C2.359,13,1.891,13,1.891,13 C1.891,13,1.891,10.4975,1.891,10.4975 C1.891,10.4412,1.88775,10.3859,1.88125,10.3318 C1.87475,10.2776,1.86067,10.2256,1.839,10.1758 C1.81733,10.1259,1.78483,10.0826,1.7415,10.0458 C1.69817,10.0089,1.64833,9.9905,1.592,9.9905 C1.54,9.9905,1.49233,10.0089,1.449,10.0458 C1.40567,10.0826,1.37317,10.1259,1.3515,10.1758 C1.32983,10.2256,1.31575,10.2776,1.30925,10.3318 C1.30275,10.3859,1.2995,10.4412,1.2995,10.4975 C1.2995,10.4975,1.2995,13,1.2995,13 C1.2995,13,0.8315,13,0.8315,13 z M5.804,13.052 C5.70867,13.052,5.61225,13.039,5.51475,13.013 C5.41725,12.987,5.32842,12.9458,5.24825,12.8895 C5.16808,12.8332,5.10092,12.7638,5.04675,12.6815 C4.99258,12.5992,4.94925,12.5114,4.91675,12.4183 C4.88425,12.3251,4.8615,12.2298,4.8485,12.1323 C4.8355,12.0348,4.829,11.9362,4.829,11.8365 C4.829,11.8365,4.829,10.075,4.829,10.075 C4.829,10.075,4.205,10.075,4.205,10.075 C4.205,10.075,4.205,9.62,4.205,9.62 C4.205,9.62,4.829,9.62,4.829,9.62 C4.829,9.62,4.829,8.2225,4.829,8.2225 C4.829,8.2225,5.336,8.2225,5.336,8.2225 C5.336,8.2225,5.336,9.62,5.336,9.62 C5.336,9.62,6.48,9.62,6.48,9.62 C6.48,9.62,6.48,10.075,6.48,10.075 C6.48,10.075,5.336,10.075,5.336,10.075 C5.336,10.075,5.336,11.8365,5.336,11.8365 C5.336,11.8928,5.33817,11.9492,5.3425,12.0055 C5.34683,12.0618,5.3555,12.1171,5.3685,12.1713 C5.3815,12.2254,5.39883,12.2774,5.4205,12.3273 C5.44217,12.3771,5.47142,12.4237,5.50825,12.467 C5.54508,12.5103,5.5895,12.5428,5.6415,12.5645 C5.6935,12.5862,5.74767,12.597,5.804,12.597 C5.86033,12.597,5.91342,12.5862,5.96325,12.5645 C6.01308,12.5428,6.05642,12.5125,6.09325,12.4735 C6.13008,12.4345,6.16042,12.3901,6.18425,12.3403 C6.20808,12.2904,6.2265,12.2395,6.2395,12.1875 C6.2525,12.1355,6.26225,12.0824,6.26875,12.0283 C6.27525,11.9741,6.2785,11.921,6.2785,11.869 C6.2785,11.869,6.2785,11.83,6.2785,11.83 C6.2785,11.83,6.7855,11.83,6.7855,11.83 C6.7855,11.83,6.7855,11.8885,6.7855,11.8885 C6.7855,11.9838,6.77683,12.0792,6.7595,12.1745 C6.74217,12.2698,6.71725,12.3619,6.68475,12.4508 C6.65225,12.5396,6.60783,12.623,6.5515,12.701 C6.49517,12.779,6.428,12.8451,6.35,12.8993 C6.272,12.9534,6.18533,12.9924,6.09,13.0163 C5.99467,13.0401,5.89933,13.052,5.804,13.052 z M8.6055,13.052 C8.4885,13.052,8.37258,13.0401,8.25775,13.0163 C8.14292,12.9924,8.03567,12.9513,7.936,12.8928 C7.83633,12.8343,7.74858,12.7606,7.67275,12.6718 C7.59692,12.5829,7.53517,12.4854,7.4875,12.3793 C7.43983,12.2731,7.40733,12.1626,7.39,12.0478 C7.37267,11.9329,7.364,11.817,7.364,11.7 C7.364,11.7,7.364,10.92,7.364,10.92 C7.364,10.803,7.37267,10.6871,7.39,10.5723 C7.40733,10.4574,7.43983,10.3469,7.4875,10.2408 C7.53517,10.1346,7.59692,10.0371,7.67275,9.94825 C7.74858,9.85942,7.83633,9.78575,7.936,9.72725 C8.03567,9.66875,8.14292,9.62758,8.25775,9.60375 C8.37258,9.57992,8.4885,9.568,8.6055,9.568 C8.71383,9.568,8.82217,9.57667,8.9305,9.594 C9.03883,9.61133,9.14067,9.64383,9.236,9.6915 C9.33133,9.73917,9.41908,9.80092,9.49925,9.87675 C9.57942,9.95258,9.6455,10.0382,9.6975,10.1335 C9.7495,10.2288,9.78742,10.3296,9.81125,10.4358 C9.83508,10.5419,9.847,10.6492,9.847,10.7575 C9.847,10.7575,9.847,10.79,9.847,10.79 C9.847,10.79,9.34,10.79,9.34,10.79 C9.34,10.79,9.34,10.7705,9.34,10.7705 C9.34,10.6708,9.32483,10.5733,9.2945,10.478 C9.26417,10.3827,9.21433,10.2993,9.145,10.2278 C9.07567,10.1563,8.99333,10.1043,8.898,10.0718 C8.80267,10.0393,8.70517,10.023,8.6055,10.023 C8.53183,10.023,8.45925,10.0317,8.38775,10.049 C8.31625,10.0663,8.25017,10.0967,8.1895,10.14 C8.12883,10.1833,8.07792,10.2353,8.03675,10.296 C7.99558,10.3567,7.962,10.4206,7.936,10.4878 C7.91,10.5549,7.89267,10.6253,7.884,10.699 C7.87533,10.7727,7.871,10.8463,7.871,10.92 C7.871,10.92,7.871,11.7,7.871,11.7 C7.871,11.7737,7.87533,11.8473,7.884,11.921 C7.89267,11.9947,7.91,12.0651,7.936,12.1323 C7.962,12.1994,7.99558,12.2633,8.03675,12.324 C8.07792,12.3847,8.12883,12.4367,8.1895,12.48 C8.25017,12.5233,8.31625,12.5537,8.38775,12.571 C8.45925,12.5883,8.53183,12.597,8.6055,12.597 C8.70517,12.597,8.80267,12.5808,8.898,12.5483 C8.99333,12.5158,9.07567,12.4638,9.145,12.3923 C9.21433,12.3208,9.26417,12.2373,9.2945,12.142 C9.32483,12.0467,9.34,11.9492,9.34,11.8495 C9.34,11.8495,9.34,11.83,9.34,11.83 C9.34,11.83,9.847,11.83,9.847,11.83 C9.847,11.83,9.847,11.8625,9.847,11.8625 C9.847,11.9708,9.83508,12.0781,9.81125,12.1843 C9.78742,12.2904,9.7495,12.3912,9.6975,12.4865 C9.6455,12.5818,9.57942,12.6674,9.49925,12.7433 C9.41908,12.8191,9.33133,12.8808,9.236,12.9285 C9.14067,12.9762,9.03883,13.0087,8.9305,13.026 C8.82217,13.0433,8.71383,13.052,8.6055,13.052 z M10.666,13 C10.666,13,10.666,8.2225,10.666,8.2225 C10.666,8.2225,11.173,8.2225,11.173,8.2225 C11.173,8.2225,11.173,10.2375,11.173,10.2375 C11.2077,10.1422,11.2521,10.0512,11.3062,9.9645 C11.3604,9.87783,11.4276,9.80417,11.5077,9.7435 C11.5879,9.68283,11.6778,9.63842,11.7775,9.61025 C11.8772,9.58208,11.9768,9.568,12.0765,9.568 C12.1848,9.568,12.2899,9.58317,12.3918,9.6135 C12.4936,9.64383,12.5857,9.69367,12.668,9.763 C12.7503,9.83233,12.8186,9.9125,12.8728,10.0035 C12.9269,10.0945,12.9703,10.1909,13.0028,10.2928 C13.0353,10.3946,13.0569,10.4986,13.0677,10.6048 C13.0786,10.7109,13.084,10.816,13.084,10.92 C13.084,10.92,13.084,13,13.084,13 C13.084,13,12.577,13,12.577,13 C12.577,13,12.577,10.92,12.577,10.92 C12.577,10.8463,12.5727,10.7738,12.564,10.7023 C12.5553,10.6308,12.5402,10.5614,12.5185,10.4943 C12.4968,10.4271,12.4654,10.3632,12.4242,10.3025 C12.3831,10.2418,12.3343,10.1898,12.278,10.1465 C12.2217,10.1032,12.1588,10.0718,12.0895,10.0523 C12.0202,10.0328,11.9487,10.023,11.875,10.023 C11.8013,10.023,11.7298,10.0328,11.6605,10.0523 C11.5912,10.0718,11.5283,10.1032,11.472,10.1465 C11.4157,10.1898,11.3669,10.2418,11.3258,10.3025 C11.2846,10.3632,11.2532,10.4271,11.2315,10.4943 C11.2098,10.5614,11.1947,10.6308,11.186,10.7023 C11.1773,10.7738,11.173,10.8463,11.173,10.92 C11.173,10.92,11.173,13,11.173,13 C11.173,13,10.666,13,10.666,13 z"/>
      </g>
    </g>
  </g>
  <g id="margin_guides"/>
</svg>
